<?xml version="1.0" encoding="UTF-8" standalone="no"?>
<!DOCTYPE svg PUBLIC "-//W3C//DTD SVG 1.1//EN"
 "http://www.w3.org/Graphics/SVG/1.1/DTD/svg11.dtd">
<!-- Generated by graphviz version 2.40.1 (20161225.0304)
 -->
<!-- Title: G Pages: 1 -->
<svg width="332pt" height="246pt"
 viewBox="0.00 0.00 331.85 246.00" xmlns="http://www.w3.org/2000/svg" xmlns:xlink="http://www.w3.org/1999/xlink">
<g id="graph0" class="graph" transform="scale(1 1) rotate(0) translate(4 242)">
<title>G</title>
<polygon fill="#ffffff" stroke="transparent" points="-4,4 -4,-242 327.8501,-242 327.8501,4 -4,4"/>
<g id="clust1" class="cluster">
<title>cluster_Global</title>
<path fill="none" stroke="#c0c0c0" d="M148.834,-8C148.834,-8 303.8501,-8 303.8501,-8 309.8501,-8 315.8501,-14 315.8501,-20 315.8501,-20 315.8501,-218 315.8501,-218 315.8501,-224 309.8501,-230 303.8501,-230 303.8501,-230 148.834,-230 148.834,-230 142.834,-230 136.834,-224 136.834,-218 136.834,-218 136.834,-20 136.834,-20 136.834,-14 142.834,-8 148.834,-8"/>
<text text-anchor="middle" x="226.342" y="-217.2" font-family="Times,serif" font-size="11.00" fill="#c0c0c0">Global</text>
</g>
<g id="clust2" class="cluster">
<title>cluster_\Battis</title>
<path fill="none" stroke="#c0c0c0" d="M156.834,-16C156.834,-16 295.8501,-16 295.8501,-16 301.8501,-16 307.8501,-22 307.8501,-28 307.8501,-28 307.8501,-191 307.8501,-191 307.8501,-197 301.8501,-203 295.8501,-203 295.8501,-203 156.834,-203 156.834,-203 150.834,-203 144.834,-197 144.834,-191 144.834,-191 144.834,-28 144.834,-28 144.834,-22 150.834,-16 156.834,-16"/>
<text text-anchor="middle" x="226.342" y="-190.2" font-family="Times,serif" font-size="11.00" fill="#c0c0c0">Battis</text>
</g>
<g id="clust3" class="cluster">
<title>cluster_\Battis\MySQLSchemaLoader</title>
<path fill="none" stroke="#c0c0c0" d="M164.834,-24C164.834,-24 287.8501,-24 287.8501,-24 293.8501,-24 299.8501,-30 299.8501,-36 299.8501,-36 299.8501,-164 299.8501,-164 299.8501,-170 293.8501,-176 287.8501,-176 287.8501,-176 164.834,-176 164.834,-176 158.834,-176 152.834,-170 152.834,-164 152.834,-164 152.834,-36 152.834,-36 152.834,-30 158.834,-24 164.834,-24"/>
<text text-anchor="middle" x="226.342" y="-163.2" font-family="Times,serif" font-size="11.00" fill="#c0c0c0">MySQLSchemaLoader</text>
</g>
<g id="clust4" class="cluster">
<title>cluster_\Battis\MySQLSchemaLoader\Exceptions</title>
<path fill="none" stroke="#c0c0c0" d="M172.834,-78C172.834,-78 279.8501,-78 279.8501,-78 285.8501,-78 291.8501,-84 291.8501,-90 291.8501,-90 291.8501,-137 291.8501,-137 291.8501,-143 285.8501,-149 279.8501,-149 279.8501,-149 172.834,-149 172.834,-149 166.834,-149 160.834,-143 160.834,-137 160.834,-137 160.834,-90 160.834,-90 160.834,-84 166.834,-78 172.834,-78"/>
<text text-anchor="middle" x="226.342" y="-136.2" font-family="Times,serif" font-size="11.00" fill="#c0c0c0">Exceptions</text>
</g>
<!-- \\Battis\\MySQLSchemaLoader\\Exceptions\\LoaderException -->
<g id="node1" class="node">
<title>\\Battis\\MySQLSchemaLoader\\Exceptions\\LoaderException</title>
<polygon fill="none" stroke="#000000" points="283.8582,-122 168.8259,-122 168.8259,-86 283.8582,-86 283.8582,-122"/>
<text text-anchor="middle" x="226.342" y="-100.7" font-family="Courier,monospace" font-size="11.00" fill="#000000">LoaderException</text>
</g>
<!-- \\Exception -->
<g id="node3" class="node">
<title>\\Exception</title>
<ellipse fill="none" stroke="#000000" cx="48.417" cy="-104" rx="48.3341" ry="18"/>
<text text-anchor="middle" x="48.417" y="-99.8" font-family="Times,serif" font-size="14.00" fill="#c0c0c0">\Exception</text>
</g>
<!-- \\Battis\\MySQLSchemaLoader\\Exceptions\\LoaderException&#45;&gt;\\Exception -->
<g id="edge1" class="edge">
<title>\\Battis\\MySQLSchemaLoader\\Exceptions\\LoaderException&#45;&gt;\\Exception</title>
<path fill="none" stroke="#000000" d="M168.5749,-104C148.8737,-104 126.8355,-104 107.0658,-104"/>
<polygon fill="none" stroke="#000000" points="106.9587,-100.5001 96.9586,-104 106.9586,-107.5001 106.9587,-100.5001"/>
</g>
<!-- \\Battis\\MySQLSchemaLoader\\Loader -->
<g id="node2" class="node">
<title>\\Battis\\MySQLSchemaLoader\\Loader</title>
<polygon fill="none" stroke="#000000" points="253.9499,-68 198.7342,-68 198.7342,-32 253.9499,-32 253.9499,-68"/>
<text text-anchor="middle" x="226.342" y="-46.7" font-family="Courier,monospace" font-size="11.00" fill="#000000">Loader</text>
</g>
</g>
</svg>
