<?xml version="1.0" encoding="UTF-8" standalone="no"?>
<!DOCTYPE svg PUBLIC "-//W3C//DTD SVG 1.1//EN"
 "http://www.w3.org/Graphics/SVG/1.1/DTD/svg11.dtd">
<!-- Generated by graphviz version 2.38.0 (20140413.2041)
 -->
<!-- Title: G Pages: 1 -->
<svg width="332pt" height="246pt"
 viewBox="0.00 0.00 331.85 246.00" xmlns="http://www.w3.org/2000/svg" xmlns:xlink="http://www.w3.org/1999/xlink">
<g id="graph0" class="graph" transform="scale(1 1) rotate(0) translate(4 242)">
<title>G</title>
<polygon fill="white" stroke="none" points="-4,4 -4,-242 327.85,-242 327.85,4 -4,4"/>
<g id="clust1" class="cluster"><title>cluster_Global</title>
<path fill="none" stroke="gray" d="M148.834,-8C148.834,-8 303.85,-8 303.85,-8 309.85,-8 315.85,-14 315.85,-20 315.85,-20 315.85,-218 315.85,-218 315.85,-224 309.85,-230 303.85,-230 303.85,-230 148.834,-230 148.834,-230 142.834,-230 136.834,-224 136.834,-218 136.834,-218 136.834,-20 136.834,-20 136.834,-14 142.834,-8 148.834,-8"/>
<text text-anchor="middle" x="226.342" y="-217.2" font-family="Times,serif" font-size="11.00" fill="gray">Global</text>
</g>
<g id="clust2" class="cluster"><title>cluster_\Battis</title>
<path fill="none" stroke="gray" d="M156.834,-16C156.834,-16 295.85,-16 295.85,-16 301.85,-16 307.85,-22 307.85,-28 307.85,-28 307.85,-191 307.85,-191 307.85,-197 301.85,-203 295.85,-203 295.85,-203 156.834,-203 156.834,-203 150.834,-203 144.834,-197 144.834,-191 144.834,-191 144.834,-28 144.834,-28 144.834,-22 150.834,-16 156.834,-16"/>
<text text-anchor="middle" x="226.342" y="-190.2" font-family="Times,serif" font-size="11.00" fill="gray">Battis</text>
</g>
<g id="clust3" class="cluster"><title>cluster_\Battis\MySQLSchemaLoader</title>
<path fill="none" stroke="gray" d="M164.834,-24C164.834,-24 287.85,-24 287.85,-24 293.85,-24 299.85,-30 299.85,-36 299.85,-36 299.85,-164 299.85,-164 299.85,-170 293.85,-176 287.85,-176 287.85,-176 164.834,-176 164.834,-176 158.834,-176 152.834,-170 152.834,-164 152.834,-164 152.834,-36 152.834,-36 152.834,-30 158.834,-24 164.834,-24"/>
<text text-anchor="middle" x="226.342" y="-163.2" font-family="Times,serif" font-size="11.00" fill="gray">MySQLSchemaLoader</text>
</g>
<g id="clust4" class="cluster"><title>cluster_\Battis\MySQLSchemaLoader\Exceptions</title>
<path fill="none" stroke="gray" d="M172.834,-78C172.834,-78 279.85,-78 279.85,-78 285.85,-78 291.85,-84 291.85,-90 291.85,-90 291.85,-137 291.85,-137 291.85,-143 285.85,-149 279.85,-149 279.85,-149 172.834,-149 172.834,-149 166.834,-149 160.834,-143 160.834,-137 160.834,-137 160.834,-90 160.834,-90 160.834,-84 166.834,-78 172.834,-78"/>
<text text-anchor="middle" x="226.342" y="-136.2" font-family="Times,serif" font-size="11.00" fill="gray">Exceptions</text>
</g>
<!-- \\Battis\\MySQLSchemaLoader\\Exceptions\\LoaderException -->
<g id="node1" class="node"><title>\\Battis\\MySQLSchemaLoader\\Exceptions\\LoaderException</title>
<polygon fill="none" stroke="black" points="283.858,-122 168.826,-122 168.826,-86 283.858,-86 283.858,-122"/>
<text text-anchor="middle" x="226.342" y="-100.7" font-family="Courier,monospace" font-size="11.00">LoaderException</text>
</g>
<!-- \\Exception -->
<g id="node3" class="node"><title>\\Exception</title>
<ellipse fill="none" stroke="black" cx="48.417" cy="-104" rx="48.3341" ry="18"/>
<text text-anchor="middle" x="48.417" y="-99.8" font-family="Times,serif" font-size="14.00" fill="gray">\Exception</text>
</g>
<!-- \\Battis\\MySQLSchemaLoader\\Exceptions\\LoaderException&#45;&gt;\\Exception -->
<g id="edge1" class="edge"><title>\\Battis\\MySQLSchemaLoader\\Exceptions\\LoaderException&#45;&gt;\\Exception</title>
<path fill="none" stroke="black" d="M168.71,-104C149.037,-104 126.958,-104 107.193,-104"/>
<polygon fill="none" stroke="black" points="107.094,-100.5 97.0937,-104 107.094,-107.5 107.094,-100.5"/>
</g>
<!-- \\Battis\\MySQLSchemaLoader\\Loader -->
<g id="node2" class="node"><title>\\Battis\\MySQLSchemaLoader\\Loader</title>
<polygon fill="none" stroke="black" points="253.95,-68 198.734,-68 198.734,-32 253.95,-32 253.95,-68"/>
<text text-anchor="middle" x="226.342" y="-46.7" font-family="Courier,monospace" font-size="11.00">Loader</text>
</g>
</g>
</svg>
